<svg xmlns="http://www.w3.org/2000/svg" width="23.653" height="28.944" viewBox="0 0 23.653 28.944"><defs><style>.a{fill:#5b5b5b;}</style></defs><path class="a" d="M29.1,76.1c-2.447,4.246-.891,10.69,1.815,14.6C32.261,92.647,33.628,94.4,35.5,94.4l.107,0a5.67,5.67,0,0,0,2.131-.568,5.835,5.835,0,0,1,2.524-.6,5.487,5.487,0,0,1,2.4.579,5.09,5.09,0,0,0,2.3.552c2.11-.039,3.405-1.931,4.548-3.6a15.96,15.96,0,0,0,1.993-4.082l.008-.026a.237.237,0,0,0-.126-.291l-.017-.007a6.047,6.047,0,0,1-3.665-5.538,6.225,6.225,0,0,1,2.942-5.2l.023-.014a.237.237,0,0,0,.067-.333,6.846,6.846,0,0,0-5.384-2.924c-.153-.015-.311-.023-.47-.023a9.386,9.386,0,0,0-3.379.844,5.432,5.432,0,0,1-1.619.484,5.3,5.3,0,0,1-1.674-.49,8.114,8.114,0,0,0-2.951-.75h-.075A7.237,7.237,0,0,0,29.1,76.1Z" transform="translate(-27.875 -65.457)"/><path class="a" d="M155.178,0a6.608,6.608,0,0,0-4.363,2.238,6.192,6.192,0,0,0-1.567,4.591.237.237,0,0,0,.217.205c.1.008.2.012.307.012a5.59,5.59,0,0,0,4.118-2.112A6.528,6.528,0,0,0,155.424.211.239.239,0,0,0,155.178,0Z" transform="translate(-137.696 0)"/></svg>