<svg xmlns="http://www.w3.org/2000/svg" width="37.546" height="45.943" viewBox="0 0 37.546 45.943"><defs><style>.a{fill:#5b5b5b;}</style></defs><path class="a" d="M29.813,78.315c-3.884,6.74-1.415,16.969,2.88,23.171,2.144,3.1,4.315,5.884,7.288,5.884.056,0,.112,0,.17,0a9,9,0,0,0,3.382-.9,9.262,9.262,0,0,1,4.006-.95,8.71,8.71,0,0,1,3.814.919,8.079,8.079,0,0,0,3.653.876c3.349-.062,5.405-3.066,7.219-5.715a25.334,25.334,0,0,0,3.163-6.479l.013-.041a.377.377,0,0,0-.2-.462l-.028-.012a9.6,9.6,0,0,1-5.817-8.791,9.881,9.881,0,0,1,4.669-8.261l.037-.023A.377.377,0,0,0,64.169,77a10.867,10.867,0,0,0-8.547-4.641c-.243-.024-.494-.036-.746-.036a14.9,14.9,0,0,0-5.364,1.34,8.622,8.622,0,0,1-2.57.768,8.407,8.407,0,0,1-2.658-.777A12.88,12.88,0,0,0,39.6,72.46h-.119A11.488,11.488,0,0,0,29.813,78.315Z" transform="translate(-27.875 -61.426)"/><path class="a" d="M158.684,0a10.49,10.49,0,0,0-6.925,3.552,9.828,9.828,0,0,0-2.488,7.288.376.376,0,0,0,.344.326c.16.013.324.019.487.019a8.873,8.873,0,0,0,6.537-3.353,10.362,10.362,0,0,0,2.435-7.5A.379.379,0,0,0,158.684,0Z" transform="translate(-130.933 0)"/></svg>