<svg xmlns="http://www.w3.org/2000/svg" width="23.493" height="23.45" viewBox="0 0 23.493 23.45">
  <path id="Path_1" data-name="Path 1" d="M23.133,16.357l-4.287-2.468L8.646,8c-.117-.074-.181-.138-.181-.2s.085-.138.245-.16l4.723-.851a.628.628,0,0,1,.691.425L15.336,11.1l1.755,1.011L15.2,6.017a.691.691,0,0,0-.266-.362L7.05.167A.691.691,0,0,0,5.965.731V17.452c0,.3-.16.351-.351.128l-3.1-3.659a.628.628,0,0,1,.021-.808L5.306,10.1V8.081l-4.34,4.68a.691.691,0,0,0-.181.415l-.808,9.573a.691.691,0,0,0,.213.564l.106.074a.681.681,0,0,0,.713.011L15.5,15.038c.255-.149.383-.043.287.245L14.156,19.8a.638.638,0,0,1-.713.394l-3.989-.9L7.7,20.3l6.223,1.415a.681.681,0,0,0,.447-.043l8.7-4.085a.67.67,0,0,0,.394-.6A.66.66,0,0,0,23.133,16.357ZM5.423,19.271,1.934,21.292a.425.425,0,0,1-.2.064c-.149,0-.245-.117-.223-.33l.511-6.01c.021-.3.2-.351.394-.128l3.127,3.7a.457.457,0,0,1,.117.3.447.447,0,0,1-.234.383ZM7.337,2.592c0-.3.2-.4.447-.234L12.73,5.8q.16.112.16.223c0,.074-.085.16-.245.191L7.88,7.07a.436.436,0,0,1-.532-.447Zm7.605,11.18L7.816,17.888c-.255.149-.468.032-.468-.277V9.379c0-.3.213-.425.468-.277l7.137,4.127a.288.288,0,0,1,0,.542ZM20.8,17.122l-5.457,2.564a.447.447,0,0,1-.181.053c-.138,0-.191-.117-.117-.33l1.638-4.563a.436.436,0,0,1,.659-.234l3.489,2.021a.3.3,0,0,1,.191.255C21.017,16.974,20.953,17.059,20.8,17.122Z" transform="translate(0.026 -0.044)" fill="#c8001a"/>
</svg>
